/* XPM */
static char * PENTASQUARE_[8*8]_522_xpm[] = {
"122 122 3 1",
" 	c #FFFFA5A50000",
".	c #000000000000",
"X	c #FFFF00000000",
"                                                                                                                          ",
"                                                                                                                          ",
"                                                                                                                          ",
"                                                                                                                          ",
"    ..................................................................................................................    ",
"    ..................................................................................................................    ",
"    ..XXXXXXXXXXXXXXXXXXXXXXXXXXXXXXXXXXXXXXXXXXXXXXXXXXXXXXXXXXXXXXXXXXXX..XXXXXXXXXXXXXXXXXXXXXXXXXXXXXXXXXXXXXXXX..    ",
"    ..XXXXXXXXXXXXXXXXXXXXXXXXXXXXXXXXXXXXXXXXXXXXXXXXXXXXXXXXXXXXXXXXXXXX..XXXXXXXXXXXXXXXXXXXXXXXXXXXXXXXXXXXXXXXX..    ",
"    ..XXXXXXXXXXXXXXXXXXXXXXXXXXXXXXXXXXXXXXXXXXXXXXXXXXXXXXXXXXXXXXXXXXXX..XXXXXXXXXXXXXXXXXXXXXXXXXXXXXXXXXXXXXXXX..    ",
"    ..XXXXXXXXXXXXXXXXXXXXXXXXXXXXXXXXXXXXXXXXXXXXXXXXXXXXXXXXXXXXXXXXXXXX..XXXXXXXXXXXXXXXXXXXXXXXXXXXXXXXXXXXXXXXX..    ",
"    ..XXXXXXXXXXXXXXXXXXXXXXXXXXXXXXXXXXXXXXXXXXXXXXXXXXXXXXXXXXXXXXXXXXXX..XXXXXXXXXXXXXXXXXXXXXXXXXXXXXXXXXXXXXXXX..    ",
"    ..XXXXXXXXXXXXXXXXXXXXXXXXXXXXXXXXXXXXXXXXXXXXXXXXXXXXXXXXXXXXXXXXXXXX..XXXXXXXXXXXXXXXXXXXXXXXXXXXXXXXXXXXXXXXX..    ",
"    ..XXXXXXXXXXXXXXXXXXXXXXXXXXXXXXXXXXXXXXXXXXXXXXXXXXXXXXXXXXXXXXXXXXXX..XXXXXXXXXXXXXXXXXXXXXXXXXXXXXXXXXXXXXXXX..    ",
"    ..XXXXXXXXXXXXXXXXXXXXXXXXXXXXXXXXXXXXXXXXXXXXXXXXXXXXXXXXXXXXXXXXXXXX..XXXXXXXXXXXXXXXXXXXXXXXXXXXXXXXXXXXXXXXX..    ",
"    ..XXXXXXXXXXXXXXXXXXXXXXXXXXXXXXXXXXXXXXXXXXXXXXXXXXXXXXXXXXXXXXXXXXXX..XXXXXXXXXXXXXXXXXXXXXXXXXXXXXXXXXXXXXXXX..    ",
"    ..XXXXXXXXXXXXXXXXXXXXXXXXXXXXXXXXXXXXXXXXXXXXXXXXXXXXXXXXXXXXXXXXXXXX..XXXXXXXXXXXXXXXXXXXXXXXXXXXXXXXXXXXXXXXX..    ",
"    ..XXXXXXXXXXXXXXXXXXXXXXXXXXXXXXXXXXXXXXXXXXXXXXXXXXXXXXXXXXXXXXXXXXXX..XXXXXXXXXXXXXXXXXXXXXXXXXXXXXXXXXXXXXXXX..    ",
"    ..XXXXXXXXXXXXXXXXXXXXXXXXXXXXXXXXXXXXXXXXXXXXXXXXXXXXXXXXXXXXXXXXXXXX..XXXXXXXXXXXXXXXXXXXXXXXXXXXXXXXXXXXXXXXX..    ",
"    ....................................................................................................XXXXXXXXXXXX..    ",
"    ....................................................................................................XXXXXXXXXXXX..    ",
"    ..XXXXXXXXXXXXXXXXXXXXXXXXXXXXXXXXXXXXXXXXXXXXXXXXXXXXXX..XXXXXXXXXXXX..XXXXXXXXXXXXXXXXXXXXXXXXXX..XXXXXXXXXXXX..    ",
"    ..XXXXXXXXXXXXXXXXXXXXXXXXXXXXXXXXXXXXXXXXXXXXXXXXXXXXXX..XXXXXXXXXXXX..XXXXXXXXXXXXXXXXXXXXXXXXXX..XXXXXXXXXXXX..    ",
"    ..XXXXXXXXXXXXXXXXXXXXXXXXXXXXXXXXXXXXXXXXXXXXXXXXXXXXXX..XXXXXXXXXXXX..XXXXXXXXXXXXXXXXXXXXXXXXXX..XXXXXXXXXXXX..    ",
"    ..XXXXXXXXXXXXXXXXXXXXXXXXXXXXXXXXXXXXXXXXXXXXXXXXXXXXXX..XXXXXXXXXXXX..XXXXXXXXXXXXXXXXXXXXXXXXXX..XXXXXXXXXXXX..    ",
"    ..XXXXXXXXXXXXXXXXXXXXXXXXXXXXXXXXXXXXXXXXXXXXXXXXXXXXXX..XXXXXXXXXXXX..XXXXXXXXXXXXXXXXXXXXXXXXXX..XXXXXXXXXXXX..    ",
"    ..XXXXXXXXXXXXXXXXXXXXXXXXXXXXXXXXXXXXXXXXXXXXXXXXXXXXXX..XXXXXXXXXXXX..XXXXXXXXXXXXXXXXXXXXXXXXXX..XXXXXXXXXXXX..    ",
"    ..XXXXXXXXXXXXXXXXXXXXXXXXXXXXXXXXXXXXXXXXXXXXXXXXXXXXXX..XXXXXXXXXXXX..XXXXXXXXXXXXXXXXXXXXXXXXXX..XXXXXXXXXXXX..    ",
"    ..XXXXXXXXXXXXXXXXXXXXXXXXXXXXXXXXXXXXXXXXXXXXXXXXXXXXXX..XXXXXXXXXXXX..XXXXXXXXXXXXXXXXXXXXXXXXXX..XXXXXXXXXXXX..    ",
"    ..XXXXXXXXXXXXXXXXXXXXXXXXXXXXXXXXXXXXXXXXXXXXXXXXXXXXXX..XXXXXXXXXXXX..XXXXXXXXXXXXXXXXXXXXXXXXXX..XXXXXXXXXXXX..    ",
"    ..XXXXXXXXXXXXXXXXXXXXXXXXXXXXXXXXXXXXXXXXXXXXXXXXXXXXXX..XXXXXXXXXXXX..XXXXXXXXXXXXXXXXXXXXXXXXXX..XXXXXXXXXXXX..    ",
"    ..XXXXXXXXXXXXXXXXXXXXXXXXXXXXXXXXXXXXXXXXXXXXXXXXXXXXXX..XXXXXXXXXXXX..XXXXXXXXXXXXXXXXXXXXXXXXXX..XXXXXXXXXXXX..    ",
"    ..XXXXXXXXXXXXXXXXXXXXXXXXXXXXXXXXXXXXXXXXXXXXXXXXXXXXXX..XXXXXXXXXXXX..XXXXXXXXXXXXXXXXXXXXXXXXXX..XXXXXXXXXXXX..    ",
"    ..XXXXXXXXXXXX............................................XXXXXXXXXXXX................XXXXXXXXXXXX..XXXXXXXXXXXX..    ",
"    ..XXXXXXXXXXXX............................................XXXXXXXXXXXX................XXXXXXXXXXXX..XXXXXXXXXXXX..    ",
"    ..XXXXXXXXXXXX..XXXXXXXXXXXXXXXXXXXXXXXXXX..XXXXXXXXXXXXXXXXXXXXXXXXXXXXXXXXXXXXXXXX..XXXXXXXXXXXX..XXXXXXXXXXXX..    ",
"    ..XXXXXXXXXXXX..XXXXXXXXXXXXXXXXXXXXXXXXXX..XXXXXXXXXXXXXXXXXXXXXXXXXXXXXXXXXXXXXXXX..XXXXXXXXXXXX..XXXXXXXXXXXX..    ",
"    ..XXXXXXXXXXXX..XXXXXXXXXXXXXXXXXXXXXXXXXX..XXXXXXXXXXXXXXXXXXXXXXXXXXXXXXXXXXXXXXXX..XXXXXXXXXXXX..XXXXXXXXXXXX..    ",
"    ..XXXXXXXXXXXX..XXXXXXXXXXXXXXXXXXXXXXXXXX..XXXXXXXXXXXXXXXXXXXXXXXXXXXXXXXXXXXXXXXX..XXXXXXXXXXXX..XXXXXXXXXXXX..    ",
"    ..XXXXXXXXXXXX..XXXXXXXXXXXXXXXXXXXXXXXXXX..XXXXXXXXXXXXXXXXXXXXXXXXXXXXXXXXXXXXXXXX..XXXXXXXXXXXX..XXXXXXXXXXXX..    ",
"    ..XXXXXXXXXXXX..XXXXXXXXXXXXXXXXXXXXXXXXXX..XXXXXXXXXXXXXXXXXXXXXXXXXXXXXXXXXXXXXXXX..XXXXXXXXXXXX..XXXXXXXXXXXX..    ",
"    ..XXXXXXXXXXXX..XXXXXXXXXXXXXXXXXXXXXXXXXX..XXXXXXXXXXXXXXXXXXXXXXXXXXXXXXXXXXXXXXXX..XXXXXXXXXXXX..XXXXXXXXXXXX..    ",
"    ..XXXXXXXXXXXX..XXXXXXXXXXXXXXXXXXXXXXXXXX..XXXXXXXXXXXXXXXXXXXXXXXXXXXXXXXXXXXXXXXX..XXXXXXXXXXXX..XXXXXXXXXXXX..    ",
"    ..XXXXXXXXXXXX..XXXXXXXXXXXXXXXXXXXXXXXXXX..XXXXXXXXXXXXXXXXXXXXXXXXXXXXXXXXXXXXXXXX..XXXXXXXXXXXX..XXXXXXXXXXXX..    ",
"    ..XXXXXXXXXXXX..XXXXXXXXXXXXXXXXXXXXXXXXXX..XXXXXXXXXXXXXXXXXXXXXXXXXXXXXXXXXXXXXXXX..XXXXXXXXXXXX..XXXXXXXXXXXX..    ",
"    ..XXXXXXXXXXXX..XXXXXXXXXXXXXXXXXXXXXXXXXX..XXXXXXXXXXXXXXXXXXXXXXXXXXXXXXXXXXXXXXXX..XXXXXXXXXXXX..XXXXXXXXXXXX..    ",
"    ..XXXXXXXXXXXX..XXXXXXXXXXXXXXXXXXXXXXXXXX..XXXXXXXXXXXXXXXXXXXXXXXXXXXXXXXXXXXXXXXX..XXXXXXXXXXXX..XXXXXXXXXXXX..    ",
"    ..............................XXXXXXXXXXXX................XXXXXXXXXXXX................XXXXXXXXXXXX................    ",
"    ..............................XXXXXXXXXXXX................XXXXXXXXXXXX................XXXXXXXXXXXX................    ",
"    ..XXXXXXXXXXXXXXXXXXXXXXXXXX..XXXXXXXXXXXXXXXXXXXXXXXXXX..XXXXXXXXXXXX..XXXXXXXXXXXX..XXXXXXXXXXXXXXXXXXXXXXXXXX..    ",
"    ..XXXXXXXXXXXXXXXXXXXXXXXXXX..XXXXXXXXXXXXXXXXXXXXXXXXXX..XXXXXXXXXXXX..XXXXXXXXXXXX..XXXXXXXXXXXXXXXXXXXXXXXXXX..    ",
"    ..XXXXXXXXXXXXXXXXXXXXXXXXXX..XXXXXXXXXXXXXXXXXXXXXXXXXX..XXXXXXXXXXXX..XXXXXXXXXXXX..XXXXXXXXXXXXXXXXXXXXXXXXXX..    ",
"    ..XXXXXXXXXXXXXXXXXXXXXXXXXX..XXXXXXXXXXXXXXXXXXXXXXXXXX..XXXXXXXXXXXX..XXXXXXXXXXXX..XXXXXXXXXXXXXXXXXXXXXXXXXX..    ",
"    ..XXXXXXXXXXXXXXXXXXXXXXXXXX..XXXXXXXXXXXXXXXXXXXXXXXXXX..XXXXXXXXXXXX..XXXXXXXXXXXX..XXXXXXXXXXXXXXXXXXXXXXXXXX..    ",
"    ..XXXXXXXXXXXXXXXXXXXXXXXXXX..XXXXXXXXXXXXXXXXXXXXXXXXXX..XXXXXXXXXXXX..XXXXXXXXXXXX..XXXXXXXXXXXXXXXXXXXXXXXXXX..    ",
"    ..XXXXXXXXXXXXXXXXXXXXXXXXXX..XXXXXXXXXXXXXXXXXXXXXXXXXX..XXXXXXXXXXXX..XXXXXXXXXXXX..XXXXXXXXXXXXXXXXXXXXXXXXXX..    ",
"    ..XXXXXXXXXXXXXXXXXXXXXXXXXX..XXXXXXXXXXXXXXXXXXXXXXXXXX..XXXXXXXXXXXX..XXXXXXXXXXXX..XXXXXXXXXXXXXXXXXXXXXXXXXX..    ",
"    ..XXXXXXXXXXXXXXXXXXXXXXXXXX..XXXXXXXXXXXXXXXXXXXXXXXXXX..XXXXXXXXXXXX..XXXXXXXXXXXX..XXXXXXXXXXXXXXXXXXXXXXXXXX..    ",
"    ..XXXXXXXXXXXXXXXXXXXXXXXXXX..XXXXXXXXXXXXXXXXXXXXXXXXXX..XXXXXXXXXXXX..XXXXXXXXXXXX..XXXXXXXXXXXXXXXXXXXXXXXXXX..    ",
"    ..XXXXXXXXXXXXXXXXXXXXXXXXXX..XXXXXXXXXXXXXXXXXXXXXXXXXX..XXXXXXXXXXXX..XXXXXXXXXXXX..XXXXXXXXXXXXXXXXXXXXXXXXXX..    ",
"    ..XXXXXXXXXXXXXXXXXXXXXXXXXX..XXXXXXXXXXXXXXXXXXXXXXXXXX..XXXXXXXXXXXX..XXXXXXXXXXXX..XXXXXXXXXXXXXXXXXXXXXXXXXX..    ",
"    ..XXXXXXXXXXXXXXXXXXXXXXXXXX................XXXXXXXXXXXX................XXXXXXXXXXXX..............................    ",
"    ..XXXXXXXXXXXXXXXXXXXXXXXXXX................XXXXXXXXXXXX................XXXXXXXXXXXX..............................    ",
"    ..XXXXXXXXXXXXXXXXXXXXXXXXXX..XXXXXXXXXXXX..XXXXXXXXXXXX..XXXXXXXXXXXX..XXXXXXXXXXXXXXXXXXXXXXXXXXXXXXXXXXXXXXXX..    ",
"    ..XXXXXXXXXXXXXXXXXXXXXXXXXX..XXXXXXXXXXXX..XXXXXXXXXXXX..XXXXXXXXXXXX..XXXXXXXXXXXXXXXXXXXXXXXXXXXXXXXXXXXXXXXX..    ",
"    ..XXXXXXXXXXXXXXXXXXXXXXXXXX..XXXXXXXXXXXX..XXXXXXXXXXXX..XXXXXXXXXXXX..XXXXXXXXXXXXXXXXXXXXXXXXXXXXXXXXXXXXXXXX..    ",
"    ..XXXXXXXXXXXXXXXXXXXXXXXXXX..XXXXXXXXXXXX..XXXXXXXXXXXX..XXXXXXXXXXXX..XXXXXXXXXXXXXXXXXXXXXXXXXXXXXXXXXXXXXXXX..    ",
"    ..XXXXXXXXXXXXXXXXXXXXXXXXXX..XXXXXXXXXXXX..XXXXXXXXXXXX..XXXXXXXXXXXX..XXXXXXXXXXXXXXXXXXXXXXXXXXXXXXXXXXXXXXXX..    ",
"    ..XXXXXXXXXXXXXXXXXXXXXXXXXX..XXXXXXXXXXXX..XXXXXXXXXXXX..XXXXXXXXXXXX..XXXXXXXXXXXXXXXXXXXXXXXXXXXXXXXXXXXXXXXX..    ",
"    ..XXXXXXXXXXXXXXXXXXXXXXXXXX..XXXXXXXXXXXX..XXXXXXXXXXXX..XXXXXXXXXXXX..XXXXXXXXXXXXXXXXXXXXXXXXXXXXXXXXXXXXXXXX..    ",
"    ..XXXXXXXXXXXXXXXXXXXXXXXXXX..XXXXXXXXXXXX..XXXXXXXXXXXX..XXXXXXXXXXXX..XXXXXXXXXXXXXXXXXXXXXXXXXXXXXXXXXXXXXXXX..    ",
"    ..XXXXXXXXXXXXXXXXXXXXXXXXXX..XXXXXXXXXXXX..XXXXXXXXXXXX..XXXXXXXXXXXX..XXXXXXXXXXXXXXXXXXXXXXXXXXXXXXXXXXXXXXXX..    ",
"    ..XXXXXXXXXXXXXXXXXXXXXXXXXX..XXXXXXXXXXXX..XXXXXXXXXXXX..XXXXXXXXXXXX..XXXXXXXXXXXXXXXXXXXXXXXXXXXXXXXXXXXXXXXX..    ",
"    ..XXXXXXXXXXXXXXXXXXXXXXXXXX..XXXXXXXXXXXX..XXXXXXXXXXXX..XXXXXXXXXXXX..XXXXXXXXXXXXXXXXXXXXXXXXXXXXXXXXXXXXXXXX..    ",
"    ..XXXXXXXXXXXXXXXXXXXXXXXXXX..XXXXXXXXXXXX..XXXXXXXXXXXX..XXXXXXXXXXXX..XXXXXXXXXXXXXXXXXXXXXXXXXXXXXXXXXXXXXXXX..    ",
"    ..XXXXXXXXXXXX................XXXXXXXXXXXX................XXXXXXXXXXXX..XXXXXXXXXXXX..............................    ",
"    ..XXXXXXXXXXXX................XXXXXXXXXXXX................XXXXXXXXXXXX..XXXXXXXXXXXX..............................    ",
"    ..XXXXXXXXXXXX..XXXXXXXXXXXX..XXXXXXXXXXXXXXXXXXXXXXXXXXXXXXXXXXXXXXXX..XXXXXXXXXXXX..XXXXXXXXXXXXXXXXXXXXXXXXXX..    ",
"    ..XXXXXXXXXXXX..XXXXXXXXXXXX..XXXXXXXXXXXXXXXXXXXXXXXXXXXXXXXXXXXXXXXX..XXXXXXXXXXXX..XXXXXXXXXXXXXXXXXXXXXXXXXX..    ",
"    ..XXXXXXXXXXXX..XXXXXXXXXXXX..XXXXXXXXXXXXXXXXXXXXXXXXXXXXXXXXXXXXXXXX..XXXXXXXXXXXX..XXXXXXXXXXXXXXXXXXXXXXXXXX..    ",
"    ..XXXXXXXXXXXX..XXXXXXXXXXXX..XXXXXXXXXXXXXXXXXXXXXXXXXXXXXXXXXXXXXXXX..XXXXXXXXXXXX..XXXXXXXXXXXXXXXXXXXXXXXXXX..    ",
"    ..XXXXXXXXXXXX..XXXXXXXXXXXX..XXXXXXXXXXXXXXXXXXXXXXXXXXXXXXXXXXXXXXXX..XXXXXXXXXXXX..XXXXXXXXXXXXXXXXXXXXXXXXXX..    ",
"    ..XXXXXXXXXXXX..XXXXXXXXXXXX..XXXXXXXXXXXXXXXXXXXXXXXXXXXXXXXXXXXXXXXX..XXXXXXXXXXXX..XXXXXXXXXXXXXXXXXXXXXXXXXX..    ",
"    ..XXXXXXXXXXXX..XXXXXXXXXXXX..XXXXXXXXXXXXXXXXXXXXXXXXXXXXXXXXXXXXXXXX..XXXXXXXXXXXX..XXXXXXXXXXXXXXXXXXXXXXXXXX..    ",
"    ..XXXXXXXXXXXX..XXXXXXXXXXXX..XXXXXXXXXXXXXXXXXXXXXXXXXXXXXXXXXXXXXXXX..XXXXXXXXXXXX..XXXXXXXXXXXXXXXXXXXXXXXXXX..    ",
"    ..XXXXXXXXXXXX..XXXXXXXXXXXX..XXXXXXXXXXXXXXXXXXXXXXXXXXXXXXXXXXXXXXXX..XXXXXXXXXXXX..XXXXXXXXXXXXXXXXXXXXXXXXXX..    ",
"    ..XXXXXXXXXXXX..XXXXXXXXXXXX..XXXXXXXXXXXXXXXXXXXXXXXXXXXXXXXXXXXXXXXX..XXXXXXXXXXXX..XXXXXXXXXXXXXXXXXXXXXXXXXX..    ",
"    ..XXXXXXXXXXXX..XXXXXXXXXXXX..XXXXXXXXXXXXXXXXXXXXXXXXXXXXXXXXXXXXXXXX..XXXXXXXXXXXX..XXXXXXXXXXXXXXXXXXXXXXXXXX..    ",
"    ..XXXXXXXXXXXX..XXXXXXXXXXXX..XXXXXXXXXXXXXXXXXXXXXXXXXXXXXXXXXXXXXXXX..XXXXXXXXXXXX..XXXXXXXXXXXXXXXXXXXXXXXXXX..    ",
"    ................XXXXXXXXXXXX..........................................................XXXXXXXXXXXXXXXXXXXXXXXXXX..    ",
"    ................XXXXXXXXXXXX..........................................................XXXXXXXXXXXXXXXXXXXXXXXXXX..    ",
"    ..XXXXXXXXXXXXXXXXXXXXXXXXXXXXXXXXXXXXXXXX..XXXXXXXXXXXX..XXXXXXXXXXXXXXXXXXXXXXXXXX..XXXXXXXXXXXXXXXXXXXXXXXXXX..    ",
"    ..XXXXXXXXXXXXXXXXXXXXXXXXXXXXXXXXXXXXXXXX..XXXXXXXXXXXX..XXXXXXXXXXXXXXXXXXXXXXXXXX..XXXXXXXXXXXXXXXXXXXXXXXXXX..    ",
"    ..XXXXXXXXXXXXXXXXXXXXXXXXXXXXXXXXXXXXXXXX..XXXXXXXXXXXX..XXXXXXXXXXXXXXXXXXXXXXXXXX..XXXXXXXXXXXXXXXXXXXXXXXXXX..    ",
"    ..XXXXXXXXXXXXXXXXXXXXXXXXXXXXXXXXXXXXXXXX..XXXXXXXXXXXX..XXXXXXXXXXXXXXXXXXXXXXXXXX..XXXXXXXXXXXXXXXXXXXXXXXXXX..    ",
"    ..XXXXXXXXXXXXXXXXXXXXXXXXXXXXXXXXXXXXXXXX..XXXXXXXXXXXX..XXXXXXXXXXXXXXXXXXXXXXXXXX..XXXXXXXXXXXXXXXXXXXXXXXXXX..    ",
"    ..XXXXXXXXXXXXXXXXXXXXXXXXXXXXXXXXXXXXXXXX..XXXXXXXXXXXX..XXXXXXXXXXXXXXXXXXXXXXXXXX..XXXXXXXXXXXXXXXXXXXXXXXXXX..    ",
"    ..XXXXXXXXXXXXXXXXXXXXXXXXXXXXXXXXXXXXXXXX..XXXXXXXXXXXX..XXXXXXXXXXXXXXXXXXXXXXXXXX..XXXXXXXXXXXXXXXXXXXXXXXXXX..    ",
"    ..XXXXXXXXXXXXXXXXXXXXXXXXXXXXXXXXXXXXXXXX..XXXXXXXXXXXX..XXXXXXXXXXXXXXXXXXXXXXXXXX..XXXXXXXXXXXXXXXXXXXXXXXXXX..    ",
"    ..XXXXXXXXXXXXXXXXXXXXXXXXXXXXXXXXXXXXXXXX..XXXXXXXXXXXX..XXXXXXXXXXXXXXXXXXXXXXXXXX..XXXXXXXXXXXXXXXXXXXXXXXXXX..    ",
"    ..XXXXXXXXXXXXXXXXXXXXXXXXXXXXXXXXXXXXXXXX..XXXXXXXXXXXX..XXXXXXXXXXXXXXXXXXXXXXXXXX..XXXXXXXXXXXXXXXXXXXXXXXXXX..    ",
"    ..XXXXXXXXXXXXXXXXXXXXXXXXXXXXXXXXXXXXXXXX..XXXXXXXXXXXX..XXXXXXXXXXXXXXXXXXXXXXXXXX..XXXXXXXXXXXXXXXXXXXXXXXXXX..    ",
"    ..XXXXXXXXXXXXXXXXXXXXXXXXXXXXXXXXXXXXXXXX..XXXXXXXXXXXX..XXXXXXXXXXXXXXXXXXXXXXXXXX..XXXXXXXXXXXXXXXXXXXXXXXXXX..    ",
"    ..XXXXXXXXXXXX..............................XXXXXXXXXXXX................XXXXXXXXXXXX..............................    ",
"    ..XXXXXXXXXXXX..............................XXXXXXXXXXXX................XXXXXXXXXXXX..............................    ",
"    ..XXXXXXXXXXXX..XXXXXXXXXXXXXXXXXXXXXXXXXXXXXXXXXXXXXXXXXXXXXXXXXXXXXX..XXXXXXXXXXXXXXXXXXXXXXXXXXXXXXXXXXXXXXXX..    ",
"    ..XXXXXXXXXXXX..XXXXXXXXXXXXXXXXXXXXXXXXXXXXXXXXXXXXXXXXXXXXXXXXXXXXXX..XXXXXXXXXXXXXXXXXXXXXXXXXXXXXXXXXXXXXXXX..    ",
"    ..XXXXXXXXXXXX..XXXXXXXXXXXXXXXXXXXXXXXXXXXXXXXXXXXXXXXXXXXXXXXXXXXXXX..XXXXXXXXXXXXXXXXXXXXXXXXXXXXXXXXXXXXXXXX..    ",
"    ..XXXXXXXXXXXX..XXXXXXXXXXXXXXXXXXXXXXXXXXXXXXXXXXXXXXXXXXXXXXXXXXXXXX..XXXXXXXXXXXXXXXXXXXXXXXXXXXXXXXXXXXXXXXX..    ",
"    ..XXXXXXXXXXXX..XXXXXXXXXXXXXXXXXXXXXXXXXXXXXXXXXXXXXXXXXXXXXXXXXXXXXX..XXXXXXXXXXXXXXXXXXXXXXXXXXXXXXXXXXXXXXXX..    ",
"    ..XXXXXXXXXXXX..XXXXXXXXXXXXXXXXXXXXXXXXXXXXXXXXXXXXXXXXXXXXXXXXXXXXXX..XXXXXXXXXXXXXXXXXXXXXXXXXXXXXXXXXXXXXXXX..    ",
"    ..XXXXXXXXXXXX..XXXXXXXXXXXXXXXXXXXXXXXXXXXXXXXXXXXXXXXXXXXXXXXXXXXXXX..XXXXXXXXXXXXXXXXXXXXXXXXXXXXXXXXXXXXXXXX..    ",
"    ..XXXXXXXXXXXX..XXXXXXXXXXXXXXXXXXXXXXXXXXXXXXXXXXXXXXXXXXXXXXXXXXXXXX..XXXXXXXXXXXXXXXXXXXXXXXXXXXXXXXXXXXXXXXX..    ",
"    ..XXXXXXXXXXXX..XXXXXXXXXXXXXXXXXXXXXXXXXXXXXXXXXXXXXXXXXXXXXXXXXXXXXX..XXXXXXXXXXXXXXXXXXXXXXXXXXXXXXXXXXXXXXXX..    ",
"    ..XXXXXXXXXXXX..XXXXXXXXXXXXXXXXXXXXXXXXXXXXXXXXXXXXXXXXXXXXXXXXXXXXXX..XXXXXXXXXXXXXXXXXXXXXXXXXXXXXXXXXXXXXXXX..    ",
"    ..XXXXXXXXXXXX..XXXXXXXXXXXXXXXXXXXXXXXXXXXXXXXXXXXXXXXXXXXXXXXXXXXXXX..XXXXXXXXXXXXXXXXXXXXXXXXXXXXXXXXXXXXXXXX..    ",
"    ..XXXXXXXXXXXX..XXXXXXXXXXXXXXXXXXXXXXXXXXXXXXXXXXXXXXXXXXXXXXXXXXXXXX..XXXXXXXXXXXXXXXXXXXXXXXXXXXXXXXXXXXXXXXX..    ",
"    ..................................................................................................................    ",
"    ..................................................................................................................    ",
"                                                                                                                          ",
"                                                                                                                          ",
"                                                                                                                          ",
"                                                                                                                          "};
