/* XPM */
static char * PENTASQUARE_[8*8]_592_xpm[] = {
"122 122 3 1",
" 	c #FFFFA5A50000",
".	c #000000000000",
"X	c #FFFF00000000",
"                                                                                                                          ",
"                                                                                                                          ",
"                                                                                                                          ",
"                                                                                                                          ",
"    ..................................................................................................................    ",
"    ..................................................................................................................    ",
"    ..XXXXXXXXXXXXXXXXXXXXXXXXXXXXXXXXXXXXXXXXXXXXXXXXXXXXXXXXXXXXXXXXXXXX..XXXXXXXXXXXXXXXXXXXXXXXXXXXXXXXXXXXXXXXX..    ",
"    ..XXXXXXXXXXXXXXXXXXXXXXXXXXXXXXXXXXXXXXXXXXXXXXXXXXXXXXXXXXXXXXXXXXXX..XXXXXXXXXXXXXXXXXXXXXXXXXXXXXXXXXXXXXXXX..    ",
"    ..XXXXXXXXXXXXXXXXXXXXXXXXXXXXXXXXXXXXXXXXXXXXXXXXXXXXXXXXXXXXXXXXXXXX..XXXXXXXXXXXXXXXXXXXXXXXXXXXXXXXXXXXXXXXX..    ",
"    ..XXXXXXXXXXXXXXXXXXXXXXXXXXXXXXXXXXXXXXXXXXXXXXXXXXXXXXXXXXXXXXXXXXXX..XXXXXXXXXXXXXXXXXXXXXXXXXXXXXXXXXXXXXXXX..    ",
"    ..XXXXXXXXXXXXXXXXXXXXXXXXXXXXXXXXXXXXXXXXXXXXXXXXXXXXXXXXXXXXXXXXXXXX..XXXXXXXXXXXXXXXXXXXXXXXXXXXXXXXXXXXXXXXX..    ",
"    ..XXXXXXXXXXXXXXXXXXXXXXXXXXXXXXXXXXXXXXXXXXXXXXXXXXXXXXXXXXXXXXXXXXXX..XXXXXXXXXXXXXXXXXXXXXXXXXXXXXXXXXXXXXXXX..    ",
"    ..XXXXXXXXXXXXXXXXXXXXXXXXXXXXXXXXXXXXXXXXXXXXXXXXXXXXXXXXXXXXXXXXXXXX..XXXXXXXXXXXXXXXXXXXXXXXXXXXXXXXXXXXXXXXX..    ",
"    ..XXXXXXXXXXXXXXXXXXXXXXXXXXXXXXXXXXXXXXXXXXXXXXXXXXXXXXXXXXXXXXXXXXXX..XXXXXXXXXXXXXXXXXXXXXXXXXXXXXXXXXXXXXXXX..    ",
"    ..XXXXXXXXXXXXXXXXXXXXXXXXXXXXXXXXXXXXXXXXXXXXXXXXXXXXXXXXXXXXXXXXXXXX..XXXXXXXXXXXXXXXXXXXXXXXXXXXXXXXXXXXXXXXX..    ",
"    ..XXXXXXXXXXXXXXXXXXXXXXXXXXXXXXXXXXXXXXXXXXXXXXXXXXXXXXXXXXXXXXXXXXXX..XXXXXXXXXXXXXXXXXXXXXXXXXXXXXXXXXXXXXXXX..    ",
"    ..XXXXXXXXXXXXXXXXXXXXXXXXXXXXXXXXXXXXXXXXXXXXXXXXXXXXXXXXXXXXXXXXXXXX..XXXXXXXXXXXXXXXXXXXXXXXXXXXXXXXXXXXXXXXX..    ",
"    ..XXXXXXXXXXXXXXXXXXXXXXXXXXXXXXXXXXXXXXXXXXXXXXXXXXXXXXXXXXXXXXXXXXXX..XXXXXXXXXXXXXXXXXXXXXXXXXXXXXXXXXXXXXXXX..    ",
"    ....................................................................................................XXXXXXXXXXXX..    ",
"    ....................................................................................................XXXXXXXXXXXX..    ",
"    ..XXXXXXXXXXXX..XXXXXXXXXXXXXXXXXXXXXXXXXXXXXXXXXXXXXXXXXXXXXXXXXXXXXX..XXXXXXXXXXXX..XXXXXXXXXXXX..XXXXXXXXXXXX..    ",
"    ..XXXXXXXXXXXX..XXXXXXXXXXXXXXXXXXXXXXXXXXXXXXXXXXXXXXXXXXXXXXXXXXXXXX..XXXXXXXXXXXX..XXXXXXXXXXXX..XXXXXXXXXXXX..    ",
"    ..XXXXXXXXXXXX..XXXXXXXXXXXXXXXXXXXXXXXXXXXXXXXXXXXXXXXXXXXXXXXXXXXXXX..XXXXXXXXXXXX..XXXXXXXXXXXX..XXXXXXXXXXXX..    ",
"    ..XXXXXXXXXXXX..XXXXXXXXXXXXXXXXXXXXXXXXXXXXXXXXXXXXXXXXXXXXXXXXXXXXXX..XXXXXXXXXXXX..XXXXXXXXXXXX..XXXXXXXXXXXX..    ",
"    ..XXXXXXXXXXXX..XXXXXXXXXXXXXXXXXXXXXXXXXXXXXXXXXXXXXXXXXXXXXXXXXXXXXX..XXXXXXXXXXXX..XXXXXXXXXXXX..XXXXXXXXXXXX..    ",
"    ..XXXXXXXXXXXX..XXXXXXXXXXXXXXXXXXXXXXXXXXXXXXXXXXXXXXXXXXXXXXXXXXXXXX..XXXXXXXXXXXX..XXXXXXXXXXXX..XXXXXXXXXXXX..    ",
"    ..XXXXXXXXXXXX..XXXXXXXXXXXXXXXXXXXXXXXXXXXXXXXXXXXXXXXXXXXXXXXXXXXXXX..XXXXXXXXXXXX..XXXXXXXXXXXX..XXXXXXXXXXXX..    ",
"    ..XXXXXXXXXXXX..XXXXXXXXXXXXXXXXXXXXXXXXXXXXXXXXXXXXXXXXXXXXXXXXXXXXXX..XXXXXXXXXXXX..XXXXXXXXXXXX..XXXXXXXXXXXX..    ",
"    ..XXXXXXXXXXXX..XXXXXXXXXXXXXXXXXXXXXXXXXXXXXXXXXXXXXXXXXXXXXXXXXXXXXX..XXXXXXXXXXXX..XXXXXXXXXXXX..XXXXXXXXXXXX..    ",
"    ..XXXXXXXXXXXX..XXXXXXXXXXXXXXXXXXXXXXXXXXXXXXXXXXXXXXXXXXXXXXXXXXXXXX..XXXXXXXXXXXX..XXXXXXXXXXXX..XXXXXXXXXXXX..    ",
"    ..XXXXXXXXXXXX..XXXXXXXXXXXXXXXXXXXXXXXXXXXXXXXXXXXXXXXXXXXXXXXXXXXXXX..XXXXXXXXXXXX..XXXXXXXXXXXX..XXXXXXXXXXXX..    ",
"    ..XXXXXXXXXXXX..XXXXXXXXXXXXXXXXXXXXXXXXXXXXXXXXXXXXXXXXXXXXXXXXXXXXXX..XXXXXXXXXXXX..XXXXXXXXXXXX..XXXXXXXXXXXX..    ",
"    ..XXXXXXXXXXXX................XXXXXXXXXXXX..............................XXXXXXXXXXXX..XXXXXXXXXXXX..XXXXXXXXXXXX..    ",
"    ..XXXXXXXXXXXX................XXXXXXXXXXXX..............................XXXXXXXXXXXX..XXXXXXXXXXXX..XXXXXXXXXXXX..    ",
"    ..XXXXXXXXXXXX..XXXXXXXXXXXX..XXXXXXXXXXXX..XXXXXXXXXXXXXXXXXXXXXXXXXXXXXXXXXXXXXXXX..XXXXXXXXXXXX..XXXXXXXXXXXX..    ",
"    ..XXXXXXXXXXXX..XXXXXXXXXXXX..XXXXXXXXXXXX..XXXXXXXXXXXXXXXXXXXXXXXXXXXXXXXXXXXXXXXX..XXXXXXXXXXXX..XXXXXXXXXXXX..    ",
"    ..XXXXXXXXXXXX..XXXXXXXXXXXX..XXXXXXXXXXXX..XXXXXXXXXXXXXXXXXXXXXXXXXXXXXXXXXXXXXXXX..XXXXXXXXXXXX..XXXXXXXXXXXX..    ",
"    ..XXXXXXXXXXXX..XXXXXXXXXXXX..XXXXXXXXXXXX..XXXXXXXXXXXXXXXXXXXXXXXXXXXXXXXXXXXXXXXX..XXXXXXXXXXXX..XXXXXXXXXXXX..    ",
"    ..XXXXXXXXXXXX..XXXXXXXXXXXX..XXXXXXXXXXXX..XXXXXXXXXXXXXXXXXXXXXXXXXXXXXXXXXXXXXXXX..XXXXXXXXXXXX..XXXXXXXXXXXX..    ",
"    ..XXXXXXXXXXXX..XXXXXXXXXXXX..XXXXXXXXXXXX..XXXXXXXXXXXXXXXXXXXXXXXXXXXXXXXXXXXXXXXX..XXXXXXXXXXXX..XXXXXXXXXXXX..    ",
"    ..XXXXXXXXXXXX..XXXXXXXXXXXX..XXXXXXXXXXXX..XXXXXXXXXXXXXXXXXXXXXXXXXXXXXXXXXXXXXXXX..XXXXXXXXXXXX..XXXXXXXXXXXX..    ",
"    ..XXXXXXXXXXXX..XXXXXXXXXXXX..XXXXXXXXXXXX..XXXXXXXXXXXXXXXXXXXXXXXXXXXXXXXXXXXXXXXX..XXXXXXXXXXXX..XXXXXXXXXXXX..    ",
"    ..XXXXXXXXXXXX..XXXXXXXXXXXX..XXXXXXXXXXXX..XXXXXXXXXXXXXXXXXXXXXXXXXXXXXXXXXXXXXXXX..XXXXXXXXXXXX..XXXXXXXXXXXX..    ",
"    ..XXXXXXXXXXXX..XXXXXXXXXXXX..XXXXXXXXXXXX..XXXXXXXXXXXXXXXXXXXXXXXXXXXXXXXXXXXXXXXX..XXXXXXXXXXXX..XXXXXXXXXXXX..    ",
"    ..XXXXXXXXXXXX..XXXXXXXXXXXX..XXXXXXXXXXXX..XXXXXXXXXXXXXXXXXXXXXXXXXXXXXXXXXXXXXXXX..XXXXXXXXXXXX..XXXXXXXXXXXX..    ",
"    ..XXXXXXXXXXXX..XXXXXXXXXXXX..XXXXXXXXXXXX..XXXXXXXXXXXXXXXXXXXXXXXXXXXXXXXXXXXXXXXX..XXXXXXXXXXXX..XXXXXXXXXXXX..    ",
"    ..XXXXXXXXXXXX..XXXXXXXXXXXX..............................XXXXXXXXXXXX................XXXXXXXXXXXX................    ",
"    ..XXXXXXXXXXXX..XXXXXXXXXXXX..............................XXXXXXXXXXXX................XXXXXXXXXXXX................    ",
"    ..XXXXXXXXXXXX..XXXXXXXXXXXXXXXXXXXXXXXXXXXXXXXXXXXXXXXX..XXXXXXXXXXXX..XXXXXXXXXXXX..XXXXXXXXXXXXXXXXXXXXXXXXXX..    ",
"    ..XXXXXXXXXXXX..XXXXXXXXXXXXXXXXXXXXXXXXXXXXXXXXXXXXXXXX..XXXXXXXXXXXX..XXXXXXXXXXXX..XXXXXXXXXXXXXXXXXXXXXXXXXX..    ",
"    ..XXXXXXXXXXXX..XXXXXXXXXXXXXXXXXXXXXXXXXXXXXXXXXXXXXXXX..XXXXXXXXXXXX..XXXXXXXXXXXX..XXXXXXXXXXXXXXXXXXXXXXXXXX..    ",
"    ..XXXXXXXXXXXX..XXXXXXXXXXXXXXXXXXXXXXXXXXXXXXXXXXXXXXXX..XXXXXXXXXXXX..XXXXXXXXXXXX..XXXXXXXXXXXXXXXXXXXXXXXXXX..    ",
"    ..XXXXXXXXXXXX..XXXXXXXXXXXXXXXXXXXXXXXXXXXXXXXXXXXXXXXX..XXXXXXXXXXXX..XXXXXXXXXXXX..XXXXXXXXXXXXXXXXXXXXXXXXXX..    ",
"    ..XXXXXXXXXXXX..XXXXXXXXXXXXXXXXXXXXXXXXXXXXXXXXXXXXXXXX..XXXXXXXXXXXX..XXXXXXXXXXXX..XXXXXXXXXXXXXXXXXXXXXXXXXX..    ",
"    ..XXXXXXXXXXXX..XXXXXXXXXXXXXXXXXXXXXXXXXXXXXXXXXXXXXXXX..XXXXXXXXXXXX..XXXXXXXXXXXX..XXXXXXXXXXXXXXXXXXXXXXXXXX..    ",
"    ..XXXXXXXXXXXX..XXXXXXXXXXXXXXXXXXXXXXXXXXXXXXXXXXXXXXXX..XXXXXXXXXXXX..XXXXXXXXXXXX..XXXXXXXXXXXXXXXXXXXXXXXXXX..    ",
"    ..XXXXXXXXXXXX..XXXXXXXXXXXXXXXXXXXXXXXXXXXXXXXXXXXXXXXX..XXXXXXXXXXXX..XXXXXXXXXXXX..XXXXXXXXXXXXXXXXXXXXXXXXXX..    ",
"    ..XXXXXXXXXXXX..XXXXXXXXXXXXXXXXXXXXXXXXXXXXXXXXXXXXXXXX..XXXXXXXXXXXX..XXXXXXXXXXXX..XXXXXXXXXXXXXXXXXXXXXXXXXX..    ",
"    ..XXXXXXXXXXXX..XXXXXXXXXXXXXXXXXXXXXXXXXXXXXXXXXXXXXXXX..XXXXXXXXXXXX..XXXXXXXXXXXX..XXXXXXXXXXXXXXXXXXXXXXXXXX..    ",
"    ..XXXXXXXXXXXX..XXXXXXXXXXXXXXXXXXXXXXXXXXXXXXXXXXXXXXXX..XXXXXXXXXXXX..XXXXXXXXXXXX..XXXXXXXXXXXXXXXXXXXXXXXXXX..    ",
"    ..XXXXXXXXXXXX..............................XXXXXXXXXXXX................XXXXXXXXXXXX................XXXXXXXXXXXX..    ",
"    ..XXXXXXXXXXXX..............................XXXXXXXXXXXX................XXXXXXXXXXXX................XXXXXXXXXXXX..    ",
"    ..XXXXXXXXXXXXXXXXXXXXXXXXXX..XXXXXXXXXXXX..XXXXXXXXXXXX..XXXXXXXXXXXXXXXXXXXXXXXXXX..XXXXXXXXXXXX..XXXXXXXXXXXX..    ",
"    ..XXXXXXXXXXXXXXXXXXXXXXXXXX..XXXXXXXXXXXX..XXXXXXXXXXXX..XXXXXXXXXXXXXXXXXXXXXXXXXX..XXXXXXXXXXXX..XXXXXXXXXXXX..    ",
"    ..XXXXXXXXXXXXXXXXXXXXXXXXXX..XXXXXXXXXXXX..XXXXXXXXXXXX..XXXXXXXXXXXXXXXXXXXXXXXXXX..XXXXXXXXXXXX..XXXXXXXXXXXX..    ",
"    ..XXXXXXXXXXXXXXXXXXXXXXXXXX..XXXXXXXXXXXX..XXXXXXXXXXXX..XXXXXXXXXXXXXXXXXXXXXXXXXX..XXXXXXXXXXXX..XXXXXXXXXXXX..    ",
"    ..XXXXXXXXXXXXXXXXXXXXXXXXXX..XXXXXXXXXXXX..XXXXXXXXXXXX..XXXXXXXXXXXXXXXXXXXXXXXXXX..XXXXXXXXXXXX..XXXXXXXXXXXX..    ",
"    ..XXXXXXXXXXXXXXXXXXXXXXXXXX..XXXXXXXXXXXX..XXXXXXXXXXXX..XXXXXXXXXXXXXXXXXXXXXXXXXX..XXXXXXXXXXXX..XXXXXXXXXXXX..    ",
"    ..XXXXXXXXXXXXXXXXXXXXXXXXXX..XXXXXXXXXXXX..XXXXXXXXXXXX..XXXXXXXXXXXXXXXXXXXXXXXXXX..XXXXXXXXXXXX..XXXXXXXXXXXX..    ",
"    ..XXXXXXXXXXXXXXXXXXXXXXXXXX..XXXXXXXXXXXX..XXXXXXXXXXXX..XXXXXXXXXXXXXXXXXXXXXXXXXX..XXXXXXXXXXXX..XXXXXXXXXXXX..    ",
"    ..XXXXXXXXXXXXXXXXXXXXXXXXXX..XXXXXXXXXXXX..XXXXXXXXXXXX..XXXXXXXXXXXXXXXXXXXXXXXXXX..XXXXXXXXXXXX..XXXXXXXXXXXX..    ",
"    ..XXXXXXXXXXXXXXXXXXXXXXXXXX..XXXXXXXXXXXX..XXXXXXXXXXXX..XXXXXXXXXXXXXXXXXXXXXXXXXX..XXXXXXXXXXXX..XXXXXXXXXXXX..    ",
"    ..XXXXXXXXXXXXXXXXXXXXXXXXXX..XXXXXXXXXXXX..XXXXXXXXXXXX..XXXXXXXXXXXXXXXXXXXXXXXXXX..XXXXXXXXXXXX..XXXXXXXXXXXX..    ",
"    ..XXXXXXXXXXXXXXXXXXXXXXXXXX..XXXXXXXXXXXX..XXXXXXXXXXXX..XXXXXXXXXXXXXXXXXXXXXXXXXX..XXXXXXXXXXXX..XXXXXXXXXXXX..    ",
"    ..............................XXXXXXXXXXXX................XXXXXXXXXXXX................XXXXXXXXXXXX................    ",
"    ..............................XXXXXXXXXXXX................XXXXXXXXXXXX................XXXXXXXXXXXX................    ",
"    ..XXXXXXXXXXXXXXXXXXXXXXXXXXXXXXXXXXXXXXXX..XXXXXXXXXXXXXXXXXXXXXXXXXX..XXXXXXXXXXXXXXXXXXXXXXXXXXXXXXXXXXXXXXXX..    ",
"    ..XXXXXXXXXXXXXXXXXXXXXXXXXXXXXXXXXXXXXXXX..XXXXXXXXXXXXXXXXXXXXXXXXXX..XXXXXXXXXXXXXXXXXXXXXXXXXXXXXXXXXXXXXXXX..    ",
"    ..XXXXXXXXXXXXXXXXXXXXXXXXXXXXXXXXXXXXXXXX..XXXXXXXXXXXXXXXXXXXXXXXXXX..XXXXXXXXXXXXXXXXXXXXXXXXXXXXXXXXXXXXXXXX..    ",
"    ..XXXXXXXXXXXXXXXXXXXXXXXXXXXXXXXXXXXXXXXX..XXXXXXXXXXXXXXXXXXXXXXXXXX..XXXXXXXXXXXXXXXXXXXXXXXXXXXXXXXXXXXXXXXX..    ",
"    ..XXXXXXXXXXXXXXXXXXXXXXXXXXXXXXXXXXXXXXXX..XXXXXXXXXXXXXXXXXXXXXXXXXX..XXXXXXXXXXXXXXXXXXXXXXXXXXXXXXXXXXXXXXXX..    ",
"    ..XXXXXXXXXXXXXXXXXXXXXXXXXXXXXXXXXXXXXXXX..XXXXXXXXXXXXXXXXXXXXXXXXXX..XXXXXXXXXXXXXXXXXXXXXXXXXXXXXXXXXXXXXXXX..    ",
"    ..XXXXXXXXXXXXXXXXXXXXXXXXXXXXXXXXXXXXXXXX..XXXXXXXXXXXXXXXXXXXXXXXXXX..XXXXXXXXXXXXXXXXXXXXXXXXXXXXXXXXXXXXXXXX..    ",
"    ..XXXXXXXXXXXXXXXXXXXXXXXXXXXXXXXXXXXXXXXX..XXXXXXXXXXXXXXXXXXXXXXXXXX..XXXXXXXXXXXXXXXXXXXXXXXXXXXXXXXXXXXXXXXX..    ",
"    ..XXXXXXXXXXXXXXXXXXXXXXXXXXXXXXXXXXXXXXXX..XXXXXXXXXXXXXXXXXXXXXXXXXX..XXXXXXXXXXXXXXXXXXXXXXXXXXXXXXXXXXXXXXXX..    ",
"    ..XXXXXXXXXXXXXXXXXXXXXXXXXXXXXXXXXXXXXXXX..XXXXXXXXXXXXXXXXXXXXXXXXXX..XXXXXXXXXXXXXXXXXXXXXXXXXXXXXXXXXXXXXXXX..    ",
"    ..XXXXXXXXXXXXXXXXXXXXXXXXXXXXXXXXXXXXXXXX..XXXXXXXXXXXXXXXXXXXXXXXXXX..XXXXXXXXXXXXXXXXXXXXXXXXXXXXXXXXXXXXXXXX..    ",
"    ..XXXXXXXXXXXXXXXXXXXXXXXXXXXXXXXXXXXXXXXX..XXXXXXXXXXXXXXXXXXXXXXXXXX..XXXXXXXXXXXXXXXXXXXXXXXXXXXXXXXXXXXXXXXX..    ",
"    ..............................XXXXXXXXXXXX............................................XXXXXXXXXXXX................    ",
"    ..............................XXXXXXXXXXXX............................................XXXXXXXXXXXX................    ",
"    ..XXXXXXXXXXXXXXXXXXXXXXXXXX..XXXXXXXXXXXX..XXXXXXXXXXXXXXXXXXXXXXXXXX..XXXXXXXXXXXX..XXXXXXXXXXXX..XXXXXXXXXXXX..    ",
"    ..XXXXXXXXXXXXXXXXXXXXXXXXXX..XXXXXXXXXXXX..XXXXXXXXXXXXXXXXXXXXXXXXXX..XXXXXXXXXXXX..XXXXXXXXXXXX..XXXXXXXXXXXX..    ",
"    ..XXXXXXXXXXXXXXXXXXXXXXXXXX..XXXXXXXXXXXX..XXXXXXXXXXXXXXXXXXXXXXXXXX..XXXXXXXXXXXX..XXXXXXXXXXXX..XXXXXXXXXXXX..    ",
"    ..XXXXXXXXXXXXXXXXXXXXXXXXXX..XXXXXXXXXXXX..XXXXXXXXXXXXXXXXXXXXXXXXXX..XXXXXXXXXXXX..XXXXXXXXXXXX..XXXXXXXXXXXX..    ",
"    ..XXXXXXXXXXXXXXXXXXXXXXXXXX..XXXXXXXXXXXX..XXXXXXXXXXXXXXXXXXXXXXXXXX..XXXXXXXXXXXX..XXXXXXXXXXXX..XXXXXXXXXXXX..    ",
"    ..XXXXXXXXXXXXXXXXXXXXXXXXXX..XXXXXXXXXXXX..XXXXXXXXXXXXXXXXXXXXXXXXXX..XXXXXXXXXXXX..XXXXXXXXXXXX..XXXXXXXXXXXX..    ",
"    ..XXXXXXXXXXXXXXXXXXXXXXXXXX..XXXXXXXXXXXX..XXXXXXXXXXXXXXXXXXXXXXXXXX..XXXXXXXXXXXX..XXXXXXXXXXXX..XXXXXXXXXXXX..    ",
"    ..XXXXXXXXXXXXXXXXXXXXXXXXXX..XXXXXXXXXXXX..XXXXXXXXXXXXXXXXXXXXXXXXXX..XXXXXXXXXXXX..XXXXXXXXXXXX..XXXXXXXXXXXX..    ",
"    ..XXXXXXXXXXXXXXXXXXXXXXXXXX..XXXXXXXXXXXX..XXXXXXXXXXXXXXXXXXXXXXXXXX..XXXXXXXXXXXX..XXXXXXXXXXXX..XXXXXXXXXXXX..    ",
"    ..XXXXXXXXXXXXXXXXXXXXXXXXXX..XXXXXXXXXXXX..XXXXXXXXXXXXXXXXXXXXXXXXXX..XXXXXXXXXXXX..XXXXXXXXXXXX..XXXXXXXXXXXX..    ",
"    ..XXXXXXXXXXXXXXXXXXXXXXXXXX..XXXXXXXXXXXX..XXXXXXXXXXXXXXXXXXXXXXXXXX..XXXXXXXXXXXX..XXXXXXXXXXXX..XXXXXXXXXXXX..    ",
"    ..XXXXXXXXXXXXXXXXXXXXXXXXXX..XXXXXXXXXXXX..XXXXXXXXXXXXXXXXXXXXXXXXXX..XXXXXXXXXXXX..XXXXXXXXXXXX..XXXXXXXXXXXX..    ",
"    ..XXXXXXXXXXXXXXXXXXXXXXXXXX................XXXXXXXXXXXXXXXXXXXXXXXXXX..XXXXXXXXXXXX................XXXXXXXXXXXX..    ",
"    ..XXXXXXXXXXXXXXXXXXXXXXXXXX................XXXXXXXXXXXXXXXXXXXXXXXXXX..XXXXXXXXXXXX................XXXXXXXXXXXX..    ",
"    ..XXXXXXXXXXXXXXXXXXXXXXXXXXXXXXXXXXXXXXXX..XXXXXXXXXXXXXXXXXXXXXXXXXX..XXXXXXXXXXXXXXXXXXXXXXXXXXXXXXXXXXXXXXXX..    ",
"    ..XXXXXXXXXXXXXXXXXXXXXXXXXXXXXXXXXXXXXXXX..XXXXXXXXXXXXXXXXXXXXXXXXXX..XXXXXXXXXXXXXXXXXXXXXXXXXXXXXXXXXXXXXXXX..    ",
"    ..XXXXXXXXXXXXXXXXXXXXXXXXXXXXXXXXXXXXXXXX..XXXXXXXXXXXXXXXXXXXXXXXXXX..XXXXXXXXXXXXXXXXXXXXXXXXXXXXXXXXXXXXXXXX..    ",
"    ..XXXXXXXXXXXXXXXXXXXXXXXXXXXXXXXXXXXXXXXX..XXXXXXXXXXXXXXXXXXXXXXXXXX..XXXXXXXXXXXXXXXXXXXXXXXXXXXXXXXXXXXXXXXX..    ",
"    ..XXXXXXXXXXXXXXXXXXXXXXXXXXXXXXXXXXXXXXXX..XXXXXXXXXXXXXXXXXXXXXXXXXX..XXXXXXXXXXXXXXXXXXXXXXXXXXXXXXXXXXXXXXXX..    ",
"    ..XXXXXXXXXXXXXXXXXXXXXXXXXXXXXXXXXXXXXXXX..XXXXXXXXXXXXXXXXXXXXXXXXXX..XXXXXXXXXXXXXXXXXXXXXXXXXXXXXXXXXXXXXXXX..    ",
"    ..XXXXXXXXXXXXXXXXXXXXXXXXXXXXXXXXXXXXXXXX..XXXXXXXXXXXXXXXXXXXXXXXXXX..XXXXXXXXXXXXXXXXXXXXXXXXXXXXXXXXXXXXXXXX..    ",
"    ..XXXXXXXXXXXXXXXXXXXXXXXXXXXXXXXXXXXXXXXX..XXXXXXXXXXXXXXXXXXXXXXXXXX..XXXXXXXXXXXXXXXXXXXXXXXXXXXXXXXXXXXXXXXX..    ",
"    ..XXXXXXXXXXXXXXXXXXXXXXXXXXXXXXXXXXXXXXXX..XXXXXXXXXXXXXXXXXXXXXXXXXX..XXXXXXXXXXXXXXXXXXXXXXXXXXXXXXXXXXXXXXXX..    ",
"    ..XXXXXXXXXXXXXXXXXXXXXXXXXXXXXXXXXXXXXXXX..XXXXXXXXXXXXXXXXXXXXXXXXXX..XXXXXXXXXXXXXXXXXXXXXXXXXXXXXXXXXXXXXXXX..    ",
"    ..XXXXXXXXXXXXXXXXXXXXXXXXXXXXXXXXXXXXXXXX..XXXXXXXXXXXXXXXXXXXXXXXXXX..XXXXXXXXXXXXXXXXXXXXXXXXXXXXXXXXXXXXXXXX..    ",
"    ..XXXXXXXXXXXXXXXXXXXXXXXXXXXXXXXXXXXXXXXX..XXXXXXXXXXXXXXXXXXXXXXXXXX..XXXXXXXXXXXXXXXXXXXXXXXXXXXXXXXXXXXXXXXX..    ",
"    ..................................................................................................................    ",
"    ..................................................................................................................    ",
"                                                                                                                          ",
"                                                                                                                          ",
"                                                                                                                          ",
"                                                                                                                          "};
