/* XPM */
static char *poly[] = {
"14 18 3 1",
"a	c orange",
"b	c black",
"c	c gray",
"ccccccccccccbb"
"ccccccccccccbb"
"ccccccccccccbb"
"ccccccccccccbb"
"ccccccccccccbb"
"ccccccccccccbb"
"ccccccccccccbb"
"ccccccccccccbb"
"ccccccccccccbb"
"ccccccccccccbb"
"ccccccccccccbb"
"ccccccccccccbb"
"bbbbbbbbbbbbbb"
"bbbbbbbbbbbbbb"
"aaaaaaaaaaaaaa"
"aaaaaaaaaaaaaa"
"aaaaaaaaaaaaaa"
"aaaaaaaaaaaaaa"};
