/* XPM */
static char *poly[] = {
"18 14 3 1",
"a	c orange",
"b	c black",
"c	c gray",
"ccccccccccccbbaaaa"
"ccccccccccccbbaaaa"
"ccccccccccccbbaaaa"
"ccccccccccccbbaaaa"
"ccccccccccccbbaaaa"
"ccccccccccccbbaaaa"
"ccccccccccccbbaaaa"
"ccccccccccccbbaaaa"
"ccccccccccccbbaaaa"
"ccccccccccccbbaaaa"
"ccccccccccccbbaaaa"
"ccccccccccccbbaaaa"
"ccccccccccccbbaaaa"
"ccccccccccccbbaaaa"};
