/* XPM */
static char *poly[] = {
"18 18 3 1",
"a	c orange",
"b	c black",
"c	c gray",
"ccccccccccccbbaaaa"
"ccccccccccccbbaaaa"
"ccccccccccccbbaaaa"
"ccccccccccccbbaaaa"
"ccccccccccccbbaaaa"
"ccccccccccccbbaaaa"
"ccccccccccccbbaaaa"
"ccccccccccccbbaaaa"
"ccccccccccccbbaaaa"
"ccccccccccccbbaaaa"
"ccccccccccccbbaaaa"
"ccccccccccccbbaaaa"
"bbbbbbbbbbbbbbaaaa"
"bbbbbbbbbbbbbbaaaa"
"aaaaaaaaaaaaaaaaaa"
"aaaaaaaaaaaaaaaaaa"
"aaaaaaaaaaaaaaaaaa"
"aaaaaaaaaaaaaaaaaa"};
