/* XPM */
static char *poly[] = {
"20 14 3 1",
"a	c orange",
"b	c black",
"c	c gray",
"aaaabbcccccccccccccc"
"aaaabbcccccccccccccc"
"aaaabbcccccccccccccc"
"aaaabbcccccccccccccc"
"aaaabbcccccccccccccc"
"aaaabbcccccccccccccc"
"aaaabbcccccccccccccc"
"aaaabbcccccccccccccc"
"aaaabbcccccccccccccc"
"aaaabbcccccccccccccc"
"aaaabbcccccccccccccc"
"aaaabbcccccccccccccc"
"aaaabbcccccccccccccc"
"aaaabbcccccccccccccc"};
