/* XPM */
static char *poly[] = {
"14 18 3 1",
"a	c orange",
"b	c black",
"c	c orange",
"cccccccccccccc"
"cccccccccccccc"
"cccccccccccccc"
"cccccccccccccc"
"cccccccccccccc"
"cccccccccccccc"
"cccccccccccccc"
"cccccccccccccc"
"cccccccccccccc"
"cccccccccccccc"
"cccccccccccccc"
"cccccccccccccc"
"bbbbbbbbbbbbbb"
"bbbbbbbbbbbbbb"
"aaaaaaaaaaaaaa"
"aaaaaaaaaaaaaa"
"aaaaaaaaaaaaaa"
"aaaaaaaaaaaaaa"};
