/* XPM */
static char *poly[] = {
"14 14 3 1",
"a	c orange",
"b	c black",
"c	c orange",
"ccccccccccccbb"
"ccccccccccccbb"
"ccccccccccccbb"
"ccccccccccccbb"
"ccccccccccccbb"
"ccccccccccccbb"
"ccccccccccccbb"
"ccccccccccccbb"
"ccccccccccccbb"
"ccccccccccccbb"
"ccccccccccccbb"
"ccccccccccccbb"
"bbbbbbbbbbbbbb"
"bbbbbbbbbbbbbb"};
