/* XPM */
static char *poly[] = {
"20 18 3 1",
"a	c orange",
"b	c black",
"c	c red",
"aaaabbccccccccccccbb"
"aaaabbccccccccccccbb"
"aaaabbccccccccccccbb"
"aaaabbccccccccccccbb"
"aaaabbccccccccccccbb"
"aaaabbccccccccccccbb"
"aaaabbccccccccccccbb"
"aaaabbccccccccccccbb"
"aaaabbccccccccccccbb"
"aaaabbccccccccccccbb"
"aaaabbccccccccccccbb"
"aaaabbccccccccccccbb"
"aaaabbbbbbbbbbbbbbbb"
"aaaabbbbbbbbbbbbbbbb"
"aaaaaaaaaaaaaaaaaaaa"
"aaaaaaaaaaaaaaaaaaaa"
"aaaaaaaaaaaaaaaaaaaa"
"aaaaaaaaaaaaaaaaaaaa"};
