/* XPM */
static char *poly[] = {
"18 20 3 1",
"a	c orange",
"b	c black",
"c	c red",
"aaaaaaaaaaaaaaaaaa"
"aaaaaaaaaaaaaaaaaa"
"aaaaaaaaaaaaaaaaaa"
"aaaaaaaaaaaaaaaaaa"
"bbbbbbbbbbbbbbaaaa"
"bbbbbbbbbbbbbbaaaa"
"ccccccccccccbbaaaa"
"ccccccccccccbbaaaa"
"ccccccccccccbbaaaa"
"ccccccccccccbbaaaa"
"ccccccccccccbbaaaa"
"ccccccccccccbbaaaa"
"ccccccccccccbbaaaa"
"ccccccccccccbbaaaa"
"ccccccccccccbbaaaa"
"ccccccccccccbbaaaa"
"ccccccccccccbbaaaa"
"ccccccccccccbbaaaa"
"bbbbbbbbbbbbbbaaaa"
"bbbbbbbbbbbbbbaaaa"};
