/* XPM */
static char *poly[] = {
"14 20 3 1",
"a	c orange",
"b	c black",
"c	c red",
"aaaaaaaaaaaaaa"
"aaaaaaaaaaaaaa"
"aaaaaaaaaaaaaa"
"aaaaaaaaaaaaaa"
"bbbbbbbbbbbbbb"
"bbbbbbbbbbbbbb"
"ccccccccccccbb"
"ccccccccccccbb"
"ccccccccccccbb"
"ccccccccccccbb"
"ccccccccccccbb"
"ccccccccccccbb"
"ccccccccccccbb"
"ccccccccccccbb"
"ccccccccccccbb"
"ccccccccccccbb"
"ccccccccccccbb"
"ccccccccccccbb"
"ccccccccccccbb"
"ccccccccccccbb"};
