/* XPM */
static char *poly[] = {
"32 34 3 1",
"a	c orange",
"b	c black",
"c	c gray",
"aaaaaaaaaaaaaaaaaaaaaaaaaaaaaaaa"
"aaaaaaaaaaaaaaaaaaaaaaaaaaaaaaaa"
"aaaaaaaaaaaaaaaaaaaaaaaaaaaaaaaa"
"aaaaaaaaaaaaaaaaaaaaaaaaaaaaaaaa"
"bbbbbbbbbbbbbbbbbbbbbbbbbbbbaaaa"
"bbbbbbbbbbbbbbbbbbbbbbbbbbbbaaaa"
"ccccccccccccccccccccccccccbbaaaa"
"ccccccccccccccccccccccccccbbaaaa"
"ccccccccccccccccccccccccccbbaaaa"
"ccccccccccccccccccccccccccbbaaaa"
"ccccccccccccccccccccccccccbbaaaa"
"ccccccccccccccccccccccccccbbaaaa"
"ccccccccccccccccccccccccccbbaaaa"
"ccccccccccccccccccccccccccbbaaaa"
"ccccccccccccccccccccccccccbbaaaa"
"ccccccccccccccccccccccccccbbaaaa"
"ccccccccccccccccccccccccccbbaaaa"
"ccccccccccccccccccccccccccbbaaaa"
"ccccccccccccccccccccccccccbbaaaa"
"ccccccccccccccccccccccccccbbaaaa"
"ccccccccccccccccccccccccccbbaaaa"
"ccccccccccccccccccccccccccbbaaaa"
"ccccccccccccccccccccccccccbbaaaa"
"ccccccccccccccccccccccccccbbaaaa"
"ccccccccccccccccccccccccccbbaaaa"
"ccccccccccccccccccccccccccbbaaaa"
"ccccccccccccccccccccccccccbbaaaa"
"ccccccccccccccccccccccccccbbaaaa"
"ccccccccccccccccccccccccccbbaaaa"
"ccccccccccccccccccccccccccbbaaaa"
"ccccccccccccccccccccccccccbbaaaa"
"ccccccccccccccccccccccccccbbaaaa"
"bbbbbbbbbbbbbbbbbbbbbbbbbbbbaaaa"
"bbbbbbbbbbbbbbbbbbbbbbbbbbbbaaaa"};
