/* XPM */
static char *poly[] = {
"28 32 3 1",
"a	c orange",
"b	c black",
"c	c gray",
"ccccccccccccccccccccccccccbb"
"ccccccccccccccccccccccccccbb"
"ccccccccccccccccccccccccccbb"
"ccccccccccccccccccccccccccbb"
"ccccccccccccccccccccccccccbb"
"ccccccccccccccccccccccccccbb"
"ccccccccccccccccccccccccccbb"
"ccccccccccccccccccccccccccbb"
"ccccccccccccccccccccccccccbb"
"ccccccccccccccccccccccccccbb"
"ccccccccccccccccccccccccccbb"
"ccccccccccccccccccccccccccbb"
"ccccccccccccccccccccccccccbb"
"ccccccccccccccccccccccccccbb"
"ccccccccccccccccccccccccccbb"
"ccccccccccccccccccccccccccbb"
"ccccccccccccccccccccccccccbb"
"ccccccccccccccccccccccccccbb"
"ccccccccccccccccccccccccccbb"
"ccccccccccccccccccccccccccbb"
"ccccccccccccccccccccccccccbb"
"ccccccccccccccccccccccccccbb"
"ccccccccccccccccccccccccccbb"
"ccccccccccccccccccccccccccbb"
"ccccccccccccccccccccccccccbb"
"ccccccccccccccccccccccccccbb"
"bbbbbbbbbbbbbbbbbbbbbbbbbbbb"
"bbbbbbbbbbbbbbbbbbbbbbbbbbbb"
"aaaaaaaaaaaaaaaaaaaaaaaaaaaa"
"aaaaaaaaaaaaaaaaaaaaaaaaaaaa"
"aaaaaaaaaaaaaaaaaaaaaaaaaaaa"
"aaaaaaaaaaaaaaaaaaaaaaaaaaaa"};
