/* XPM */
static char *poly[] = {
"32 28 3 1",
"a	c orange",
"b	c black",
"c	c gray",
"ccccccccccccccccccccccccccbbaaaa"
"ccccccccccccccccccccccccccbbaaaa"
"ccccccccccccccccccccccccccbbaaaa"
"ccccccccccccccccccccccccccbbaaaa"
"ccccccccccccccccccccccccccbbaaaa"
"ccccccccccccccccccccccccccbbaaaa"
"ccccccccccccccccccccccccccbbaaaa"
"ccccccccccccccccccccccccccbbaaaa"
"ccccccccccccccccccccccccccbbaaaa"
"ccccccccccccccccccccccccccbbaaaa"
"ccccccccccccccccccccccccccbbaaaa"
"ccccccccccccccccccccccccccbbaaaa"
"ccccccccccccccccccccccccccbbaaaa"
"ccccccccccccccccccccccccccbbaaaa"
"ccccccccccccccccccccccccccbbaaaa"
"ccccccccccccccccccccccccccbbaaaa"
"ccccccccccccccccccccccccccbbaaaa"
"ccccccccccccccccccccccccccbbaaaa"
"ccccccccccccccccccccccccccbbaaaa"
"ccccccccccccccccccccccccccbbaaaa"
"ccccccccccccccccccccccccccbbaaaa"
"ccccccccccccccccccccccccccbbaaaa"
"ccccccccccccccccccccccccccbbaaaa"
"ccccccccccccccccccccccccccbbaaaa"
"ccccccccccccccccccccccccccbbaaaa"
"ccccccccccccccccccccccccccbbaaaa"
"ccccccccccccccccccccccccccbbaaaa"
"ccccccccccccccccccccccccccbbaaaa"};
