/* XPM */
static char *poly[] = {
"34 34 3 1",
"a	c orange",
"b	c black",
"c	c gray",
"aaaaaaaaaaaaaaaaaaaaaaaaaaaaaaaaaa"
"aaaaaaaaaaaaaaaaaaaaaaaaaaaaaaaaaa"
"aaaaaaaaaaaaaaaaaaaaaaaaaaaaaaaaaa"
"aaaaaaaaaaaaaaaaaaaaaaaaaaaaaaaaaa"
"aaaabbbbbbbbbbbbbbbbbbbbbbbbbbbbbb"
"aaaabbbbbbbbbbbbbbbbbbbbbbbbbbbbbb"
"aaaabbcccccccccccccccccccccccccccc"
"aaaabbcccccccccccccccccccccccccccc"
"aaaabbcccccccccccccccccccccccccccc"
"aaaabbcccccccccccccccccccccccccccc"
"aaaabbcccccccccccccccccccccccccccc"
"aaaabbcccccccccccccccccccccccccccc"
"aaaabbcccccccccccccccccccccccccccc"
"aaaabbcccccccccccccccccccccccccccc"
"aaaabbcccccccccccccccccccccccccccc"
"aaaabbcccccccccccccccccccccccccccc"
"aaaabbcccccccccccccccccccccccccccc"
"aaaabbcccccccccccccccccccccccccccc"
"aaaabbcccccccccccccccccccccccccccc"
"aaaabbcccccccccccccccccccccccccccc"
"aaaabbcccccccccccccccccccccccccccc"
"aaaabbcccccccccccccccccccccccccccc"
"aaaabbcccccccccccccccccccccccccccc"
"aaaabbcccccccccccccccccccccccccccc"
"aaaabbcccccccccccccccccccccccccccc"
"aaaabbcccccccccccccccccccccccccccc"
"aaaabbcccccccccccccccccccccccccccc"
"aaaabbcccccccccccccccccccccccccccc"
"aaaabbcccccccccccccccccccccccccccc"
"aaaabbcccccccccccccccccccccccccccc"
"aaaabbcccccccccccccccccccccccccccc"
"aaaabbcccccccccccccccccccccccccccc"
"aaaabbccccccccccccccccccccccccccbb"
"aaaabbccccccccccccccccccccccccccbb"};
