/* XPM */
static char *poly[] = {
"34 28 3 1",
"a	c orange",
"b	c black",
"c	c orange",
"aaaabbccccccccccccccccccccccccccbb"
"aaaabbccccccccccccccccccccccccccbb"
"aaaabbccccccccccccccccccccccccccbb"
"aaaabbccccccccccccccccccccccccccbb"
"aaaabbccccccccccccccccccccccccccbb"
"aaaabbccccccccccccccccccccccccccbb"
"aaaabbccccccccccccccccccccccccccbb"
"aaaabbccccccccccccccccccccccccccbb"
"aaaabbccccccccccccccccccccccccccbb"
"aaaabbccccccccccccccccccccccccccbb"
"aaaabbccccccccccccccccccccccccccbb"
"aaaabbccccccccccccccccccccccccccbb"
"aaaabbccccccccccccccccccccccccccbb"
"aaaabbccccccccccccccccccccccccccbb"
"aaaabbccccccccccccccccccccccccccbb"
"aaaabbccccccccccccccccccccccccccbb"
"aaaabbccccccccccccccccccccccccccbb"
"aaaabbccccccccccccccccccccccccccbb"
"aaaabbccccccccccccccccccccccccccbb"
"aaaabbccccccccccccccccccccccccccbb"
"aaaabbccccccccccccccccccccccccccbb"
"aaaabbccccccccccccccccccccccccccbb"
"aaaabbccccccccccccccccccccccccccbb"
"aaaabbccccccccccccccccccccccccccbb"
"aaaabbccccccccccccccccccccccccccbb"
"aaaabbccccccccccccccccccccccccccbb"
"aaaabbccccccccccccccccccccccccccbb"
"aaaabbccccccccccccccccccccccccccbb"};
