/* XPM */
static char *poly[] = {
"28 28 3 1",
"a	c orange",
"b	c black",
"c	c orange",
"cccccccccccccccccccccccccccc"
"cccccccccccccccccccccccccccc"
"cccccccccccccccccccccccccccc"
"cccccccccccccccccccccccccccc"
"cccccccccccccccccccccccccccc"
"cccccccccccccccccccccccccccc"
"cccccccccccccccccccccccccccc"
"cccccccccccccccccccccccccccc"
"cccccccccccccccccccccccccccc"
"cccccccccccccccccccccccccccc"
"cccccccccccccccccccccccccccc"
"cccccccccccccccccccccccccccc"
"cccccccccccccccccccccccccccc"
"cccccccccccccccccccccccccccc"
"cccccccccccccccccccccccccccc"
"cccccccccccccccccccccccccccc"
"cccccccccccccccccccccccccccc"
"cccccccccccccccccccccccccccc"
"cccccccccccccccccccccccccccc"
"cccccccccccccccccccccccccccc"
"cccccccccccccccccccccccccccc"
"cccccccccccccccccccccccccccc"
"cccccccccccccccccccccccccccc"
"cccccccccccccccccccccccccccc"
"cccccccccccccccccccccccccccc"
"cccccccccccccccccccccccccccc"
"bbbbbbbbbbbbbbbbbbbbbbbbbbbb"
"bbbbbbbbbbbbbbbbbbbbbbbbbbbb"};
