/* XPM */
static char *poly[] = {
"32 32 3 1",
"a	c orange",
"b	c black",
"c	c orange",
"ccccccccccccccccccccccccccbbaaaa"
"ccccccccccccccccccccccccccbbaaaa"
"ccccccccccccccccccccccccccbbaaaa"
"ccccccccccccccccccccccccccbbaaaa"
"ccccccccccccccccccccccccccbbaaaa"
"ccccccccccccccccccccccccccbbaaaa"
"ccccccccccccccccccccccccccbbaaaa"
"ccccccccccccccccccccccccccbbaaaa"
"ccccccccccccccccccccccccccbbaaaa"
"ccccccccccccccccccccccccccbbaaaa"
"ccccccccccccccccccccccccccbbaaaa"
"ccccccccccccccccccccccccccbbaaaa"
"ccccccccccccccccccccccccccbbaaaa"
"ccccccccccccccccccccccccccbbaaaa"
"ccccccccccccccccccccccccccbbaaaa"
"ccccccccccccccccccccccccccbbaaaa"
"ccccccccccccccccccccccccccbbaaaa"
"ccccccccccccccccccccccccccbbaaaa"
"ccccccccccccccccccccccccccbbaaaa"
"ccccccccccccccccccccccccccbbaaaa"
"ccccccccccccccccccccccccccbbaaaa"
"ccccccccccccccccccccccccccbbaaaa"
"ccccccccccccccccccccccccccbbaaaa"
"ccccccccccccccccccccccccccbbaaaa"
"ccccccccccccccccccccccccccbbaaaa"
"ccccccccccccccccccccccccccbbaaaa"
"bbbbbbbbbbbbbbbbbbbbbbbbbbbbaaaa"
"bbbbbbbbbbbbbbbbbbbbbbbbbbbbaaaa"
"aaaaaaaaaaaaaaaaaaaaaaaaaaaaaaaa"
"aaaaaaaaaaaaaaaaaaaaaaaaaaaaaaaa"
"aaaaaaaaaaaaaaaaaaaaaaaaaaaaaaaa"
"aaaaaaaaaaaaaaaaaaaaaaaaaaaaaaaa"};
