/* XPM */
static char *poly[] = {
"34 32 3 1",
"a	c orange",
"b	c black",
"c	c orange",
"aaaabbcccccccccccccccccccccccccccc"
"aaaabbcccccccccccccccccccccccccccc"
"aaaabbcccccccccccccccccccccccccccc"
"aaaabbcccccccccccccccccccccccccccc"
"aaaabbcccccccccccccccccccccccccccc"
"aaaabbcccccccccccccccccccccccccccc"
"aaaabbcccccccccccccccccccccccccccc"
"aaaabbcccccccccccccccccccccccccccc"
"aaaabbcccccccccccccccccccccccccccc"
"aaaabbcccccccccccccccccccccccccccc"
"aaaabbcccccccccccccccccccccccccccc"
"aaaabbcccccccccccccccccccccccccccc"
"aaaabbcccccccccccccccccccccccccccc"
"aaaabbcccccccccccccccccccccccccccc"
"aaaabbcccccccccccccccccccccccccccc"
"aaaabbcccccccccccccccccccccccccccc"
"aaaabbcccccccccccccccccccccccccccc"
"aaaabbcccccccccccccccccccccccccccc"
"aaaabbcccccccccccccccccccccccccccc"
"aaaabbcccccccccccccccccccccccccccc"
"aaaabbcccccccccccccccccccccccccccc"
"aaaabbcccccccccccccccccccccccccccc"
"aaaabbcccccccccccccccccccccccccccc"
"aaaabbcccccccccccccccccccccccccccc"
"aaaabbcccccccccccccccccccccccccccc"
"aaaabbcccccccccccccccccccccccccccc"
"aaaabbbbbbbbbbbbbbbbbbbbbbbbbbbbbb"
"aaaabbbbbbbbbbbbbbbbbbbbbbbbbbbbbb"
"aaaaaaaaaaaaaaaaaaaaaaaaaaaaaaaaaa"
"aaaaaaaaaaaaaaaaaaaaaaaaaaaaaaaaaa"
"aaaaaaaaaaaaaaaaaaaaaaaaaaaaaaaaaa"
"aaaaaaaaaaaaaaaaaaaaaaaaaaaaaaaaaa"};
