/* XPM */
static char *poly[] = {
"34 34 3 1",
"a	c orange",
"b	c black",
"c	c red",
"aaaaaaaaaaaaaaaaaaaaaaaaaaaaaaaaaa"
"aaaaaaaaaaaaaaaaaaaaaaaaaaaaaaaaaa"
"aaaaaaaaaaaaaaaaaaaaaaaaaaaaaaaaaa"
"aaaaaaaaaaaaaaaaaaaaaaaaaaaaaaaaaa"
"aaaabbbbbbbbbbbbbbbbbbbbbbbbbbbbbb"
"aaaabbbbbbbbbbbbbbbbbbbbbbbbbbbbbb"
"aaaabbccccccccccccccccccccccccccbb"
"aaaabbccccccccccccccccccccccccccbb"
"aaaabbccccccccccccccccccccccccccbb"
"aaaabbccccccccccccccccccccccccccbb"
"aaaabbccccccccccccccccccccccccccbb"
"aaaabbccccccccccccccccccccccccccbb"
"aaaabbccccccccccccccccccccccccccbb"
"aaaabbccccccccccccccccccccccccccbb"
"aaaabbccccccccccccccccccccccccccbb"
"aaaabbccccccccccccccccccccccccccbb"
"aaaabbccccccccccccccccccccccccccbb"
"aaaabbccccccccccccccccccccccccccbb"
"aaaabbccccccccccccccccccccccccccbb"
"aaaabbccccccccccccccccccccccccccbb"
"aaaabbccccccccccccccccccccccccccbb"
"aaaabbccccccccccccccccccccccccccbb"
"aaaabbccccccccccccccccccccccccccbb"
"aaaabbccccccccccccccccccccccccccbb"
"aaaabbccccccccccccccccccccccccccbb"
"aaaabbccccccccccccccccccccccccccbb"
"aaaabbccccccccccccccccccccccccccbb"
"aaaabbccccccccccccccccccccccccccbb"
"aaaabbccccccccccccccccccccccccccbb"
"aaaabbccccccccccccccccccccccccccbb"
"aaaabbccccccccccccccccccccccccccbb"
"aaaabbccccccccccccccccccccccccccbb"
"aaaabbbbbbbbbbbbbbbbbbbbbbbbbbbbbb"
"aaaabbbbbbbbbbbbbbbbbbbbbbbbbbbbbb"};
