/* XPM */
static char *poly[] = {
"28 28 3 1",
"a	c orange",
"b	c black",
"c	c red",
"ccccccccccccccccccccccccccbb"
"ccccccccccccccccccccccccccbb"
"ccccccccccccccccccccccccccbb"
"ccccccccccccccccccccccccccbb"
"ccccccccccccccccccccccccccbb"
"ccccccccccccccccccccccccccbb"
"ccccccccccccccccccccccccccbb"
"ccccccccccccccccccccccccccbb"
"ccccccccccccccccccccccccccbb"
"ccccccccccccccccccccccccccbb"
"ccccccccccccccccccccccccccbb"
"ccccccccccccccccccccccccccbb"
"ccccccccccccccccccccccccccbb"
"ccccccccccccccccccccccccccbb"
"ccccccccccccccccccccccccccbb"
"ccccccccccccccccccccccccccbb"
"ccccccccccccccccccccccccccbb"
"ccccccccccccccccccccccccccbb"
"ccccccccccccccccccccccccccbb"
"ccccccccccccccccccccccccccbb"
"ccccccccccccccccccccccccccbb"
"ccccccccccccccccccccccccccbb"
"ccccccccccccccccccccccccccbb"
"ccccccccccccccccccccccccccbb"
"ccccccccccccccccccccccccccbb"
"ccccccccccccccccccccccccccbb"
"ccccccccccccccccccccccccccbb"
"ccccccccccccccccccccccccccbb"};
