/* XPM */
static char *poly[] = {
"34 32 3 1",
"a	c orange",
"b	c black",
"c	c red",
"aaaabbccccccccccccccccccccccccccbb"
"aaaabbccccccccccccccccccccccccccbb"
"aaaabbccccccccccccccccccccccccccbb"
"aaaabbccccccccccccccccccccccccccbb"
"aaaabbccccccccccccccccccccccccccbb"
"aaaabbccccccccccccccccccccccccccbb"
"aaaabbccccccccccccccccccccccccccbb"
"aaaabbccccccccccccccccccccccccccbb"
"aaaabbccccccccccccccccccccccccccbb"
"aaaabbccccccccccccccccccccccccccbb"
"aaaabbccccccccccccccccccccccccccbb"
"aaaabbccccccccccccccccccccccccccbb"
"aaaabbccccccccccccccccccccccccccbb"
"aaaabbccccccccccccccccccccccccccbb"
"aaaabbccccccccccccccccccccccccccbb"
"aaaabbccccccccccccccccccccccccccbb"
"aaaabbccccccccccccccccccccccccccbb"
"aaaabbccccccccccccccccccccccccccbb"
"aaaabbccccccccccccccccccccccccccbb"
"aaaabbccccccccccccccccccccccccccbb"
"aaaabbccccccccccccccccccccccccccbb"
"aaaabbccccccccccccccccccccccccccbb"
"aaaabbccccccccccccccccccccccccccbb"
"aaaabbccccccccccccccccccccccccccbb"
"aaaabbccccccccccccccccccccccccccbb"
"aaaabbccccccccccccccccccccccccccbb"
"aaaabbbbbbbbbbbbbbbbbbbbbbbbbbbbbb"
"aaaabbbbbbbbbbbbbbbbbbbbbbbbbbbbbb"
"aaaaaaaaaaaaaaaaaaaaaaaaaaaaaaaaaa"
"aaaaaaaaaaaaaaaaaaaaaaaaaaaaaaaaaa"
"aaaaaaaaaaaaaaaaaaaaaaaaaaaaaaaaaa"
"aaaaaaaaaaaaaaaaaaaaaaaaaaaaaaaaaa"};
